<svg xmlns="http://www.w3.org/2000/svg" xmlns:svg="http://www.w3.org/2000/svg" id="svg38" width="1920" height="1080" version="1.1" viewBox="0 0 1920 1080"><metadata id="metadata42"/><defs id="defs16"><marker id="arrow-container-1" markerHeight="3" markerWidth="3" orient="auto-start-reverse" refX=".5" refY=".5" viewBox="0 0 1 1"><path id="path2" d="M 1,0.5 0.5,0 v 1 z" style="fill:#f50057"/></marker><marker id="arrow-container-2" markerHeight="3" markerWidth="3" orient="auto-start-reverse" refX=".5" refY=".5" viewBox="0 0 1 1"><path id="path5" d="M 1,0.5 0.5,0 v 1 z" style="fill:#000"/></marker><filter id="shadow-container" width="2" height="2" x="-.5" y="-.5"><feGaussianBlur id="feGaussianBlur8" stdDeviation="4"/></filter><linearGradient id="gradient-container" x1="10.458" x2="35.558" y1="39.443" y2="83.367" gradientTransform="matrix(10.370296,0,0,7.2592072,932.5437,-14.818481)" gradientUnits="userSpaceOnUse"><stop id="stop11" offset="55%" stop-color="#fff"/><stop id="stop13" offset="100%" stop-color="#fdccdd"/></linearGradient></defs><g id="g870" transform="translate(-35.59322,98.305085)"><rect id="rect21" width="959.15" height="306.928" x="-511.287" y="251.069" transform="rotate(-45)" style="display:inline;opacity:1;fill:#1574bc;fill-opacity:1;stroke:none;stroke-width:2.5309341;stroke-linecap:butt;stroke-linejoin:miter;stroke-miterlimit:4;stroke-dasharray:none;stroke-opacity:1;paint-order:markers stroke fill"/><rect id="rect39" width="959.15" height="306.928" x="-94.413" y="250.92" transform="rotate(45)" style="display:inline;opacity:1;fill:#dae1e8;fill-opacity:1;stroke:none;stroke-width:6.90588188;stroke-linecap:butt;stroke-linejoin:miter;stroke-miterlimit:4;stroke-dasharray:none;stroke-opacity:1;paint-order:markers stroke fill"/><rect id="rect39-5" width="959.15" height="306.928" x="-94.413" y="557.848" transform="rotate(45)" style="display:inline;opacity:1;fill:#1574bc;fill-opacity:1;stroke:none;stroke-width:6.90588188;stroke-linecap:butt;stroke-linejoin:miter;stroke-miterlimit:4;stroke-dasharray:none;stroke-opacity:1;paint-order:markers stroke fill"/><rect id="rect21-0" width="959.15" height="306.928" x="-252.503" y="-53.686" transform="rotate(-45)" style="display:inline;opacity:1;fill:#55c4fa;fill-opacity:1;stroke:none;stroke-width:2.5309341;stroke-linecap:butt;stroke-linejoin:miter;stroke-miterlimit:4;stroke-dasharray:none;stroke-opacity:1;paint-order:markers stroke fill"/></g><path id="path913" d="m 544.1437,627.46613 -29.84678,45.64802 c 8.97354,3.12123 16.38647,8.77847 22.23878,16.9717 5.85231,7.80308 8.77846,17.36185 8.77846,28.67631 0,14.04555 -4.87692,26.14032 -14.63077,36.28433 -9.75385,9.75385 -21.65355,14.63077 -35.6991,14.63077 -14.04554,0 -26.14031,-4.87692 -36.28432,-14.63077 -9.75385,-10.14401 -14.63077,-22.23878 -14.63077,-36.28433 0,-7.41292 1.17046,-14.04554 3.51138,-19.89785 2.73108,-5.85231 6.43755,-12.09477 11.11939,-18.72739 l 50.9151,-75.4948 z m 82.16558,0 -29.84678,45.64802 c 8.97354,3.12123 16.38647,8.77847 22.23878,16.9717 5.85231,7.80308 8.77846,17.36185 8.77846,28.67631 0,14.04555 -4.87692,26.14032 -14.63077,36.28433 -9.75385,9.75385 -21.65355,14.63077 -35.69909,14.63077 -14.04554,0 -26.14031,-4.87692 -36.28432,-14.63077 -9.75385,-10.14401 -14.63077,-22.23878 -14.63077,-36.28433 0,-7.41292 1.17046,-14.04554 3.51138,-19.89785 2.73108,-5.85231 6.43754,-12.09477 11.11939,-18.72739 l 50.91509,-75.4948 z" style="font-style:normal;font-variant:normal;font-weight:700;font-stretch:normal;font-size:360px;line-height:125%;font-family:'Product Sans';-inkscape-font-specification:'Product Sans Bold';letter-spacing:0;word-spacing:0;fill:#addaf2;fill-opacity:1;stroke:none;stroke-width:1.62564px;stroke-linecap:butt;stroke-linejoin:miter;stroke-opacity:1"/><path id="path917" d="m 1604.9939,1026.8929 29.8468,-45.6479 c -8.5834,-3.12128 -15.9963,-8.58344 -22.2388,-16.38652 -5.8523,-8.19323 -8.7785,-17.94708 -8.7785,-29.26155 0,-14.04555 4.8769,-25.94524 14.6308,-35.69909 10.144,-10.14401 22.2388,-15.21601 36.2843,-15.21601 14.0455,0 25.9452,5.072 35.6991,15.21601 9.7539,9.75385 14.6308,21.65354 14.6308,35.69909 0,7.41293 -1.3655,14.04554 -4.0966,19.89785 -2.3409,5.85231 -5.8523,12.09478 -10.5342,18.72739 l -50.9151,75.49473 z m 84.1656,0 29.8467,-45.6479 c -8.5833,-3.12128 -15.9962,-8.58344 -22.2387,-16.38652 -5.8523,-8.19323 -8.7785,-17.94708 -8.7785,-29.26155 0,-14.04555 4.8769,-25.94524 14.6308,-35.69909 10.144,-10.14401 22.2388,-15.21601 36.2843,-15.21601 14.0455,0 25.9452,5.072 35.6991,15.21601 9.7539,9.75385 14.6308,21.65354 14.6308,35.69909 0,7.41293 -1.3656,14.04554 -4.0967,19.89785 -2.3409,5.85231 -5.8522,12.09478 -10.5341,18.72739 l -50.9151,75.49473 z" style="font-style:normal;font-variant:normal;font-weight:700;font-stretch:normal;font-size:360px;line-height:125%;font-family:'Product Sans';-inkscape-font-specification:'Product Sans Bold';letter-spacing:0;word-spacing:0;fill:#addaf2;fill-opacity:1;stroke:none;stroke-width:1.62564px;stroke-linecap:butt;stroke-linejoin:miter;stroke-opacity:1"/><text style="font-style:normal;font-weight:400;font-size:26.9484px;line-height:125%;font-family:sans-serif;letter-spacing:0;word-spacing:0;fill:#000;fill-opacity:1;stroke:none;stroke-width:.673711px;stroke-linecap:butt;stroke-linejoin:miter;stroke-opacity:1" id="text887" x="626.843" y="660.676" transform="scale(0.91886412,1.0883002)" xml:space="preserve"><tspan id="tspan885" x="626.843" y="660.676" style="font-style:normal;font-variant:normal;font-weight:500;font-stretch:normal;font-size:129.352px;line-height:100%;font-family:Roboto;-inkscape-font-specification:'Roboto Medium';stroke-width:.673711px">Constraints go down.</tspan><tspan style="font-style:normal;font-variant:normal;font-weight:500;font-stretch:normal;font-size:129.352px;line-height:100%;font-family:Roboto;-inkscape-font-specification:'Roboto Medium';stroke-width:.673711px" id="tspan891" x="626.843" y="790.028">Sizes go up.</tspan><tspan style="font-style:normal;font-variant:normal;font-weight:500;font-stretch:normal;font-size:129.352px;line-height:100%;font-family:Roboto;-inkscape-font-specification:'Roboto Medium';stroke-width:.673711px" id="tspan889" x="626.843" y="919.38">Parent sets position.</tspan></text><g id="g4693" transform="translate(81.497053,-74.366694)"><rect style="fill:#000;filter:url(#shadow-container)" id="rect20" width="70" height="47.5" x="15" y="1005" rx="10" ry="10" transform="matrix(8.6764121,0,0,8.6764121,932.5437,-8517.7022)"/><rect style="fill:url(#gradient-container);stroke:#3b75ad;stroke-width:43.3821" id="rect22" width="607.349" height="412.13" x="1062.69" y="202.092" rx="86.764" ry="86.764"/><rect style="fill:#4dd0e1;stroke-width:8.67641" id="rect24" width="347.056" height="260.292" x="1192.836" y="332.238"/><line style="stroke:#f50057;stroke-width:17.3528;marker-start:url(#arrow-container-1);marker-end:url(#arrow-container-1)" id="line26" x1="1106.072" x2="1166.807" y1="462.384" y2="462.384"/><line style="stroke:#f50057;stroke-width:17.3528;marker-start:url(#arrow-container-1);marker-end:url(#arrow-container-1)" id="line28" x1="1565.922" x2="1626.657" y1="462.384" y2="462.384"/><line style="stroke:#f50057;stroke-width:17.3528;marker-start:url(#arrow-container-1);marker-end:url(#arrow-container-1)" id="line30" x1="1366.364" x2="1366.364" y1="245.474" y2="306.209"/><line style="stroke:#000;stroke-width:17.353;stroke-miterlimit:4;stroke-dasharray:none;stroke-opacity:1;marker-start:url(#arrow-container-2);marker-end:url(#arrow-container-2)" id="line34" x1="1071.366" x2="1670.039" y1="137.019" y2="137.019"/><line style="stroke:#000;stroke-width:17.3528;stroke-opacity:1;marker-start:url(#arrow-container-2);marker-end:url(#arrow-container-2)" id="line36" x1="997.617" x2="997.617" y1="210.768" y2="609.883"/><path style="font-style:normal;font-variant:normal;font-weight:700;font-stretch:normal;font-size:360px;line-height:125%;font-family:'Product Sans';-inkscape-font-specification:'Product Sans Bold';letter-spacing:0;word-spacing:0;fill:#000;fill-opacity:1;stroke:none;stroke-width:1.31883px;stroke-linecap:butt;stroke-linejoin:miter;stroke-opacity:1" id="path915" d="M 529.59463,513.57498 Z"/><path style="font-style:normal;font-variant:normal;font-weight:700;font-stretch:normal;font-size:360px;line-height:125%;font-family:'Product Sans';-inkscape-font-specification:'Product Sans Bold';letter-spacing:0;word-spacing:0;fill:#000;fill-opacity:1;stroke:none;stroke-width:1.31883px;stroke-linecap:butt;stroke-linejoin:miter;stroke-opacity:1" id="path919" d="M 856.00418,513.57498 Z"/></g></svg>